# xmcd
#
# Track frame offsets:
#	225
#	21628
#	36820
#	56229
#	67816
#	81538
#	96929
#	120327
#	127721
#	137791
#	148417
#	160578
#	171247
#	201583
#	213108
#	226160
#
# Disc length: 3337
#
# Revision: 0
# Processed by: cddbd v1.5.1PL2 Copyright (c) Steve Scherf et al.
# Submitted via: Broken Cross Disk Manager 3.81.2155
#
DISCID=e80d0610
DTITLE=Various Artist - Hot On The Highway
DYEAR=1900
DGENRE=
TTITLE0=Steppenwolf - Born To Be Wild
TTITLE1=Chuck Berry - Sweet Sixteen
TTITLE2=James Brown - Sex Machine
TTITLE3=Jerry Lee Lewis - Great Balls Of Fire
TTITLE4=The Troggs - Little Pretty Thing
TTITLE5=Ike and Tina Turner - Crazy 'Bout You Baby
TTITLE6=Chicago - 25 Or 6 To 4
TTITLE7=Elvis Presley - That's All Right Mama
TTITLE8=Dale Hawkins - Suzie Q
TTITLE9=Marmalade - Back On The Road
TTITLE10=Johnny Winter - Parchman Farm
TTITLE11=Jerry Lee Lewis - Roll Over Beethoven
TTITLE12=Alice Cooper - Science Fiction
TTITLE13=Rod Stewart - Shake
TTITLE14=The Tremeloes - Here Comes My Baby
TTITLE15=Vanilla Fudge - My World Is Empty (Without You)
EXTD=
EXTT0=
EXTT1=
EXTT2=
EXTT3=
EXTT4=
EXTT5=
EXTT6=
EXTT7=
EXTT8=
EXTT9=
EXTT10=
EXTT11=
EXTT12=
EXTT13=
EXTT14=
EXTT15=
PLAYORDER=
